inDegrees=no
num_controls=7
num_derivatives=13
num_iterations=66
num_multipliers=7
num_parameters=0
num_slacks=7
num_states=26
objective=0.334254
objective_accelerations=0.036630
objective_balance=0.001330
objective_effort=0.026984
objective_height=0.267846
objective_ligament=0.001465
solver_duration=699.007774
status=Solve_Succeeded
success=true
DataType=double
version=3
OpenSimVersion=4.5
endheader
time	/jointset/ground_pelvis/pelvis_tilt/value	/jointset/ground_pelvis/pelvis_tx/value	/jointset/ground_pelvis/pelvis_ty/value	/jointset/hip_r/hip_flexion_r/value	/jointset/hip_r/hip_adduction_r/value	/jointset/hip_r/hip_rotation_r/value	/jointset/back/lumbar_extension/value	/jointset/patellofemoral_r/patellar_flexion_r/value	/jointset/knee_r/knee_flexion_r/value	/jointset/knee_r/knee_adduction_r/value	/jointset/knee_r/knee_rotation_r/value	/jointset/ankle_r/ankle_angle_r/value	/jointset/subtalar_r/subtalar_angle_r/value	/jointset/ground_pelvis/pelvis_tilt/speed	/jointset/ground_pelvis/pelvis_tx/speed	/jointset/ground_pelvis/pelvis_ty/speed	/jointset/hip_r/hip_flexion_r/speed	/jointset/hip_r/hip_adduction_r/speed	/jointset/hip_r/hip_rotation_r/speed	/jointset/back/lumbar_extension/speed	/jointset/patellofemoral_r/patellar_flexion_r/speed	/jointset/knee_r/knee_flexion_r/speed	/jointset/knee_r/knee_adduction_r/speed	/jointset/knee_r/knee_rotation_r/speed	/jointset/ankle_r/ankle_angle_r/speed	/jointset/subtalar_r/subtalar_angle_r/speed	/forceset/tau_hip_flexion_r	/forceset/tau_hip_adduction_r	/forceset/tau_hip_rotation_r	/forceset/tau_knee_flexion_r	/forceset/tau_ankle_angle_r	/forceset/tau_subtalar_angle_r	/forceset/tau_lumbar_extension	lambda_cid13_p0	lambda_cid14_p0	lambda_cid14_p1	lambda_cid14_p2	lambda_cid14_p3	lambda_cid14_p4	lambda_cid14_p5	/jointset/ground_pelvis/pelvis_tilt/accel	/jointset/ground_pelvis/pelvis_tx/accel	/jointset/ground_pelvis/pelvis_ty/accel	/jointset/hip_r/hip_flexion_r/accel	/jointset/hip_r/hip_adduction_r/accel	/jointset/hip_r/hip_rotation_r/accel	/jointset/back/lumbar_extension/accel	/jointset/patellofemoral_r/patellar_flexion_r/accel	/jointset/knee_r/knee_flexion_r/accel	/jointset/knee_r/knee_adduction_r/accel	/jointset/knee_r/knee_rotation_r/accel	/jointset/ankle_r/ankle_angle_r/accel	/jointset/subtalar_r/subtalar_angle_r/accel	gamma_cid13_p0	gamma_cid14_p0	gamma_cid14_p1	gamma_cid14_p2	gamma_cid14_p3	gamma_cid14_p4	gamma_cid14_p5
0	-0.01067185889680157	0.133599583378006	0.9326891770392119	0.1934211968871041	-0.235882116413182	-0.2361357557411581	-0.2903787966825928	0.2311786273363231	0.2311786273363406	0.1496457262442479	0.172606539517456	0.089344008118978	0.0542531564161986	0	0	0	0	0	0	0	0	0	0	0	0	0	0.1039957602762213	-0.0330395806189606	0.005742699328333172	-0.2392742410344091	0.1157697066732413	-0.1267879987433553	-0.02612046706302135	-29.96810429395923	-11.10650785475933	-51.89371193561575	2.852667503496178	5.386241048063394	-612.1043011992434	15.9786736426398	-2.104973653821423	-1.943288224449182	-0.8217913061351672	10.36510089724615	0.4422741487293738	2.336639225202225	-6.228406481854076	10.0224867650741	10.02248676507383	-3.507320798023382	0.128443006201395	2.684118034608566	1.272069037950676	1.110360981252901e-07	8.182995706195842e-08	-6.95954631811445e-07	5.120794083695482e-07	2.13251607415782e-08	2.923722384217187e-07	-6.169837967801585e-07
0.01	-0.01077101256415143	0.1335051143540272	0.9326492414805378	0.1939249218415844	-0.2358586738046501	-0.2360192917263493	-0.2906924225261018	0.2316708636280011	0.2316708636279766	0.1494698934049055	0.1726100684860112	0.08947816956188424	0.05431839768032139	-0.01973907608022928	-0.01864438722611941	-0.007969048141032262	0.100042518998052	0.004525977882649008	0.02307869170802932	-0.06239394132401712	0.09799606820784089	0.09799606820784156	-0.0347035098130325	0.0008678032220423321	0.02686696324710798	0.01286261601623111	0.1060338406550217	-0.054597207359881	0.005180753827806482	-0.2488678017594161	0.1281092915106921	-0.1135173637964004	-0.02631746352334866	-29.97252349954601	-6.441983590276584	-45.25501669308495	1.727416988810782	-0.1933791431819233	-613.3239307218794	30.78207737655986	-1.894625151302643	-1.787597069691591	-0.7816935546554995	9.718461714967104	0.4333619746733767	2.261471272982632	-6.195203852015207	9.620466122242528	9.620466122242767	-3.382469352523345	0.09035179715685916	2.6932045278351	1.265462750877258	1.013281068479645e-07	5.805922275644844e-08	-6.184563903862361e-07	4.90379197110535e-07	3.168695148761063e-08	1.457919839573644e-07	-5.877166316760764e-07
0.02	-0.01106480710551729	0.1332316848381891	0.9325301690431397	0.1954079988488587	-0.2357948509439668	-0.235678443368605	-0.2916200509617139	0.2331295204564565	0.2331295204564495	0.148960904811688	0.1726271560501841	0.08988204444886365	0.05450668607809031	-0.03892817480772386	-0.03579209837186673	-0.01582737574486266	0.1958704105513908	0.008076050430894795	0.04487686859123759	-0.1228005184217017	0.1932841073598162	0.1932841073598182	-0.06663115080929705	0.002711719122121347	0.05394268881715299	0.02460942672919107	0.108071921034034	-0.07615483410070724	0.004618808327395234	-0.2584613624843146	0.1404488763482126	-0.1002467288493075	-0.02651445998356242	-29.98565472991394	-1.698446119229264	-38.62817910804848	0.6334054980358165	-5.68051727122556	-613.2225624457993	45.22485943161342	-1.994978183275061	-1.64395300837422	-0.7996471986948228	9.52217540830345	0.2470930818487867	2.080536260237985	-5.830933636587885	9.480880953900863	9.480880953900728	-2.95214703466991	0.3236655418086536	2.725870499196574	1.048907977296696	9.162011557063897e-08	3.428848845093846e-08	-5.409581489610273e-07	4.686789858515218e-07	4.204874223364307e-08	-7.882705069898436e-10	-5.584494665719943e-07
0.03	-0.0115488683427008	0.1327925950184754	0.9323327880222623	0.1978318731855046	-0.2356990067553312	-0.2351260174327509	-0.2931391550115051	0.2355273789795723	0.2355273789795647	0.1481436955075817	0.1726664107720072	0.09055579343414395	0.05480808961149223	-0.05786822013173625	-0.05194303174479174	-0.02365113421925188	0.288535202151939	0.01111449104382833	0.06554351776819352	-0.1804651503522856	0.2858158252776455	0.2858158252776496	-0.09671149550707052	0.005015456281853873	0.08067065688664543	0.03566638803683379	0.1015913560621002	-0.07802638182415672	0.005395247678893979	-0.2514480904869153	0.1300798327520195	-0.09364266938667869	-0.02112962234999688	-30.00728335391595	-4.700288263161572	-36.13086941387615	0.0584841128458455	-4.416687354995749	-613.8582262279999	49.20487362134153	-1.841134081477279	-1.58822997479059	-0.7740867900777346	9.083247854003103	0.3354847423561899	2.050099235604928	-5.650956794553483	9.0685331284153	9.068533128415726	-3.02113318229999	0.1652519837857236	2.625801439501537	1.133327316899154	1.118221472968431e-07	3.752308555766903e-08	-6.421819313160157e-07	5.855254964048658e-07	5.49079903088487e-08	-4.871604134068671e-08	-6.886432255637849e-07
